# xmcd CD database file
#
# Track frame offsets:
#	150
#	22238
#	43376
#	60792
#	80123
#	98093
#	116087
#	135120
#	153095
#	177550
#
# Disc length: 2511 seconds
#
# Revision: 0
# Processed by: cddbd v1.5.1PL0 Copyright (c) Steve Scherf et al.
# Submitted via: CDex 1.51
#
DISCID=7e09cd0a
DTITLE=ARM - minimal office
DYEAR=1999
DGENRE=Techno
TTITLE0=minimal office
TTITLE1=gene of master
TTITLE2=+bubble+
TTITLE3=shift down
TTITLE4=negative palace
TTITLE5=ctrl
TTITLE6=accessary
TTITLE7=1999
TTITLE8=every emotion is true
TTITLE9=you found you
EXTD=YEAR: 1999
EXTT0=
EXTT1=
EXTT2=
EXTT3=
EXTT4=
EXTT5=
EXTT6=
EXTT7=
EXTT8=
EXTT9=
PLAYORDER=
